<svg id="Layer_1" enable-background="new 0 0 512 512" height="512" viewBox="0 0 512 512" width="512" xmlns="http://www.w3.org/2000/svg"><g><g><path d="m239.922 56c-8.487 0-16.626 3.372-22.627 9.373l-86.628 86.627v80h240c26.51 0 48-21.49 48-48h32v-128z" fill="#f0915a"/></g><g><path d="m498.667 208v-176h-24c-13.255 0-24 10.745-24 24v128c0 13.255 10.745 24 24 24z" fill="#555a6e"/></g><g><path d="m474.667 136v72h24v-88h-8c-8.837 0-16 7.164-16 16z" fill="#463c4b"/></g><g><path d="m434.667 280v-168c0-8.837-7.163-16-16-16h-320c-8.837 0-16 7.163-16 16v168c0 8.837 7.163 16 16 16h320c8.836 0 16-7.163 16-16z" fill="#78af41"/></g><g><path d="m106.667 240v-88c0-4.418 3.582-8 8-8 8.837 0 16-7.163 16-16 0-4.418 3.582-8 8-8h240c4.418 0 8 3.582 8 8 0 8.837 7.163 16 16 16 4.418 0 8 3.582 8 8v88c0 4.418-3.582 8-8 8-8.837 0-16 7.163-16 16 0 4.418-3.582 8-8 8h-240c-4.418 0-8-3.582-8-8 0-8.837-7.163-16-16-16-4.419 0-8-3.582-8-8z" fill="#466932"/></g><g><circle cx="258.667" cy="196" fill="#78af41" r="60"/></g><g><path d="m281.294 65.373-75.314 75.314c-6.248 6.248-6.248 16.379 0 22.627l2.745 2.745c18.745 18.745 49.137 18.745 67.882 0l30.06-30.059h64c26.51 0 48-21.49 48-48v-32h-114.745c-8.487 0-16.627 3.372-22.628 9.373z" fill="#fab991"/></g><g><path d="m208 138.667c9.573 9.573 25.094 9.573 34.667 0 2.209-2.209 2.209-5.791 0-8l-13.333-13.333z" fill="#f0915a"/></g><g><path d="m258.667 336h-72.078c-8.487 0-16.626 3.371-22.627 9.373l-35.962 35.96 45.334 45.333 21.98-21.98c3.001-3.001 7.07-4.686 11.314-4.686h52.039c17.673 0 32-14.327 32-32 0-17.673-14.327-32-32-32z" fill="#fab991"/></g><g><path d="m403.637 335.029c-9.373-9.372-24.568-9.372-33.941 0l-64.971 64.971h-98.098c-4.243 0-8.313 1.686-11.314 4.686l-21.98 21.98 34.667 34.667 13.333-13.333h93.334c6.365 0 12.469-2.529 16.97-7.029l72-72c9.372-9.373 9.372-24.569 0-33.942z" fill="#f0915a"/></g><g><path d="m205.333 480h-192l101.01-101.01c3.124-3.124 8.19-3.124 11.314 0l84.686 84.686c3.124 3.124 3.124 8.19 0 11.314z" fill="#555a6e"/></g><g><path d="m173.333 426.667-53.333 53.333h85.333l5.01-5.01c3.124-3.124 3.124-8.19 0-11.314z" fill="#463c4b"/></g><g><path d="m258.667 384h-8c-4.418 0-8-3.582-8-8v-16c0-4.418 3.582-8 8-8h8c8.837 0 16 7.163 16 16 0 8.836-7.164 16-16 16z" fill="#f0915a"/></g></g></svg>