<svg id="Capa_1" enable-background="new 0 0 512 512" height="512" viewBox="0 0 512 512" width="512" xmlns="http://www.w3.org/2000/svg"><g id="XMLID_3114_"><path id="XMLID_805_" d="m74 298.454-56.836 110.449c-21.874 42.508 8.987 93.097 56.793 93.097h.043z" fill="#91def5"/><path id="XMLID_802_" d="m438 298.454 56.836 110.449c21.874 42.508-8.987 93.097-56.793 93.097h-.043z" fill="#91def5"/><path id="XMLID_1667_" d="m340 116.744v55.264c0 46.392-37.608 84-84 84-46.392 0-84-37.608-84-84v-55.264z" fill="#ffbf9e"/><path id="XMLID_1982_" d="m138.48 10h144c31.767 0 57.52 25.753 57.52 57.52v50.187h-144c-31.768 0-57.52-25.753-57.52-57.52z" fill="#ffcb7c"/><path id="XMLID_1280_" d="m438 502h-364v-232c0-22.091 17.909-40 40-40h284c22.091 0 40 17.909 40 40z" fill="#d3d7df"/><circle id="XMLID_1970_" cx="256" cy="366" fill="#fff" r="32"/><g id="XMLID_536_"><path id="XMLID_559_" d="m256 324c-23.159 0-42 18.841-42 42s18.841 42 42 42 42-18.841 42-42-18.841-42-42-42zm0 64c-12.131 0-22-9.869-22-22s9.869-22 22-22 22 9.869 22 22-9.869 22-22 22z"/><path id="XMLID_562_" d="m503.729 404.328-55.729-108.296v-26.032c0-27.57-22.43-50-50-50h-61.194c8.585-14.402 13.194-30.887 13.194-47.992v-104.488c0-37.23-30.29-67.52-67.521-67.52h-144c-5.522 0-10 4.477-10 10v50.187c0 24.838 13.491 46.572 33.521 58.298v53.523c0 17.105 4.609 33.591 13.194 47.992h-61.194c-27.57 0-50 22.43-50 50v26.032l-55.729 108.295c-11.88 23.088-10.901 50.106 2.622 72.273 13.523 22.166 37.097 35.4 63.107 35.4h137.127c5.522 0 10-4.478 10-10s-4.478-10-10-10h-127.127v-222c0-16.542 13.458-30 30-30h284c16.542 0 30 13.458 30 30v222h-126.873c-5.522 0-10 4.478-10 10s4.478 10 10 10h136.873c.007 0 .015-.001.022-.001s.015.001.022.001c25.966 0 49.54-13.234 63.063-35.4 13.523-22.167 14.502-49.185 2.622-72.272zm-475.762 61.856c-9.861-16.165-10.576-35.868-1.912-52.704l37.945-73.739v82.259h-5.5c-5.522 0-10 4.478-10 10s4.478 10 10 10h5.5v49.093c-14.892-2.752-27.935-11.634-36.033-24.909zm120.512-446.184h134c26.204 0 47.521 21.317 47.521 47.52v40.187h-134c-26.203 0-47.521-21.317-47.521-47.52zm33.521 152.008v-45.77c4.519.957 9.2 1.469 14 1.469h134v44.301c0 17.715-6.268 34.596-17.715 47.992h-112.57c-11.447-13.396-17.715-30.277-17.715-47.992zm302.033 294.176c-8.095 13.269-21.127 22.148-36.033 24.904v-49.088h5.5c5.522 0 10-4.478 10-10s-4.478-10-10-10h-5.5v-82.259l37.945 73.738c8.664 16.836 7.95 36.54-1.912 52.705z"/><path id="XMLID_566_" d="m220 165c-2.63 0-5.21 1.07-7.07 2.93s-2.93 4.44-2.93 7.07 1.069 5.21 2.93 7.07 4.44 2.93 7.07 2.93 5.21-1.07 7.069-2.93c1.86-1.86 2.931-4.44 2.931-7.07s-1.07-5.21-2.931-7.07c-1.859-1.86-4.439-2.93-7.069-2.93z"/><path id="XMLID_567_" d="m299.069 167.93c-1.859-1.86-4.439-2.93-7.069-2.93s-5.21 1.07-7.07 2.93-2.93 4.44-2.93 7.07 1.069 5.21 2.93 7.07 4.44 2.93 7.07 2.93 5.21-1.07 7.069-2.93c1.86-1.86 2.931-4.44 2.931-7.07s-1.07-5.21-2.931-7.07z"/><path id="XMLID_568_" d="m256 492c-2.63 0-5.21 1.069-7.07 2.93s-2.93 4.44-2.93 7.07 1.069 5.21 2.93 7.069c1.86 1.86 4.44 2.931 7.07 2.931s5.21-1.07 7.069-2.931c1.861-1.859 2.931-4.439 2.931-7.069s-1.07-5.21-2.931-7.07c-1.859-1.861-4.439-2.93-7.069-2.93z"/></g></g></svg>